<?xml version="1.0" encoding="utf-8"?>
<!-- Generator: Adobe Illustrator 24.1.3, SVG Export Plug-In . SVG Version: 6.00 Build 0)  -->
<svg version="1.1" id="Layer_1" xmlns="http://www.w3.org/2000/svg" xmlns:xlink="http://www.w3.org/1999/xlink" x="0px" y="0px"
	 viewBox="0 0 60 60" style="enable-background:new 0 0 60 60;" xml:space="preserve">
<style type="text/css">
	.st0{fill:#F09222;}
	.st1{fill:#FFFFFF;}
</style>
<g>
	<g>
		<path class="st0" d="M56.3,30c0,14.4-11.6,26-26,26s-26-11.6-26-26s11.6-26,26-26S56.3,15.6,56.3,30z"/>
		<g>
			<g>
				<path class="st1" d="M37.4,41.6c-0.2-0.1-0.3-0.2-0.5-0.4c-0.1-0.1-0.1-0.1-0.2-0.1c-0.6,0.1-1.2,0.1-1.9,0.1
					c-0.8,0-1.5,0-2.2,0c-0.5,0-0.9-0.1-1.4-0.1c-0.9-0.1-1.8-0.2-2.8-0.4c-0.4-0.1-0.8-0.2-1.1-0.5c-0.2-0.1-0.4-0.3-0.6-0.5
					c-0.4-0.4-0.5-0.8-0.4-1.4c0.1-0.5,0.2-0.9,0.5-1.3c0.6-1.2,1.5-2.2,2.6-3.1c0.1-0.1,0.1-0.1,0.2-0.1c0,0,0,0,0-0.1
					c0-0.1-0.1-0.1-0.1-0.1c-0.6-0.9-1.2-1.9-1.6-2.9C27.4,30,27.1,29,26.8,28c0-0.1-0.1-0.1-0.2-0.1c-1.9-0.4-3.8-0.9-5.7-1.6
					c-1.4-0.5-2.7-0.9-4.1-1.5c-0.1,0-0.1,0-0.1-0.1c1.1,0.3,2.1,0.5,3.2,0.8c1.1,0.2,2.2,0.5,3.2,0.8c1.1,0.2,2.2,0.5,3.3,0.6
					c0-0.1,0-0.2-0.1-0.4c-0.2-1.3-0.1-2.5,0.3-3.8c0.4-1.1,0.9-2.1,1.8-2.9c0.5-0.5,1.2-0.9,1.9-1.2c0.5-0.2,1.1-0.4,1.7-0.4
					c0.5-0.1,1.1-0.1,1.5,0c1.1,0.1,2.1,0.4,3.1,0.8c1.6,0.6,3,1.7,4.1,3c0,0,0,0,0.1,0.1c-0.1,0-0.1-0.1-0.1-0.1
					c-0.8-0.5-1.5-0.9-2.4-1.2c-0.6-0.2-1.4-0.4-2.1-0.5c-0.6-0.1-1.4,0-2,0.2c-0.8,0.2-1.4,0.6-1.9,1.2c-0.7,0.8-1.2,1.6-1.6,2.6
					c-0.2,0.6-0.4,1.3-0.5,2c-0.1,0.3-0.1,0.6-0.1,0.8c0,0.1,0,0.1,0,0.1c0.1,0,0.2,0.1,0.4,0.1c0.7,0.1,1.4,0.1,2.1,0.2
					c0.5,0.1,1,0.1,1.5,0.1c0.8,0,1.5,0,2.3,0c0.6,0,1.2-0.1,1.9-0.1c0.7-0.1,1.5-0.1,2.2-0.2c0.4-0.1,0.9-0.1,1.3-0.2
					c0.2-0.1,0.5-0.1,0.7-0.2c0.1-0.1,0.2-0.2,0.4-0.2c0.3-0.2,0.4-0.5,0.2-0.9c-0.1-0.2-0.2-0.4-0.3-0.5c-0.2-0.4-0.6-0.6-0.9-0.9
					c-0.6-0.5-1.3-0.8-1.9-1.2c-0.1,0-0.1-0.1-0.1-0.1c0.1,0,0.1,0,0.1,0c1.6,0.4,3.2,0.9,4.8,1.6c0.6,0.3,1.3,0.6,1.9,1.1
					c0.3,0.2,0.6,0.5,0.9,0.8c0.2,0.2,0.4,0.4,0.4,0.7c0.1,0.2,0,0.5-0.1,0.7c-0.1,0.1-0.2,0.2-0.4,0.4c-0.3,0.2-0.6,0.3-1,0.4
					c-0.5,0.1-0.9,0.2-1.5,0.3c-0.8,0.1-1.6,0.1-2.5,0.2c-0.8,0-1.5,0-2.4,0c-0.3,0-0.5,0-0.8,0c-0.6,0-1.2-0.1-1.9-0.1
					c-0.6-0.1-1.2-0.1-1.8-0.1c-0.8-0.1-1.6-0.1-2.4-0.2c-0.9-0.1-1.9-0.2-2.8-0.4h-0.1c0,0.1,0,0.2,0,0.3c0.1,0.9,0.2,1.8,0.5,2.6
					c0.1,0.4,0.2,0.8,0.4,1.2c0,0.1,0,0.1,0.1,0.1c0.1-0.1,0.2-0.1,0.3-0.1c1.2-0.6,2.6-0.9,3.9-1.2c0.6-0.1,1.2-0.2,1.9-0.2
					c1.1-0.1,2.1-0.1,3.2-0.1c0.6,0,1.2,0.1,1.8,0.1c0.8,0.1,1.5,0.2,2.2,0.4c0.3,0.1,0.6,0.2,0.8,0.4c0.1,0.1,0.3,0.2,0.4,0.3
					C46,32.7,46,33,46,33.3c-0.1,0.3-0.2,0.6-0.4,0.8c0,0-0.1,0.1-0.1,0.1h-0.1c-1.8,0-3.6,0-5.4,0c-0.1,0-0.1,0-0.2,0
					c0-0.1,0.1-0.1,0.1-0.1c0.1-0.2,0.2-0.3,0.3-0.5c0.1-0.1,0.1-0.2,0.1-0.4c0.1-0.1,0-0.3-0.1-0.4c-0.1-0.1-0.2-0.1-0.4-0.1
					c-0.2-0.1-0.5-0.1-0.8-0.1c-0.6,0-1.2,0.1-1.8,0.2c-0.7,0.2-1.2,0.6-1.8,1.1c-0.4,0.4-0.8,0.8-1.1,1.2c-0.4,0.5-0.8,0.9-1.2,1.4
					c0,0.1-0.1,0.1-0.1,0.1s0.1,0.1,0.1,0.1c0.6,1,1.4,2,2.2,2.9c0.1,0.1,0.1,0.1,0.2,0.1c0.5-0.1,0.9-0.2,1.3-0.4
					c0.5-0.3,1-0.6,1.4-1.2c0.2-0.2,0.4-0.5,0.5-0.8c0,0,0-0.1,0.1-0.1c-0.5,0-0.9,0-1.4,0c-0.5,0-0.9,0-1.4,0c-0.5,0-0.9,0-1.4,0
					c0.1-0.1,0.1-0.1,0.1-0.1c0.6-0.5,1.2-0.9,1.7-1.4c0.1-0.1,0.1-0.1,0.2-0.1c2.8,0,5.5,0,8.2,0c0.1,0,0.1,0,0.1,0
					c0,0.1,0,0.1,0,0.1c-0.5,1-1.1,1.9-1.9,2.7c-0.9,0.9-2,1.6-3.2,2c-0.7,0.2-1.5,0.4-2.2,0.5c-0.2,0.1-0.5,0.1-0.8,0.1
					c0,0.1,0.1,0.1,0.1,0.1c0.1,0.1,0.2,0.2,0.2,0.2C37.4,41.5,37.4,41.6,37.4,41.6L37.4,41.6z M35.1,39.8
					C35.1,39.8,35.1,39.7,35.1,39.8c-0.8-0.7-1.6-1.5-2.4-2.2c-0.1,0.2-0.1,0.3-0.2,0.4c-0.1,0.2-0.2,0.5-0.1,0.8
					c0,0.4,0.2,0.6,0.5,0.8c0.2,0.1,0.4,0.2,0.5,0.2c0.4,0.1,0.9,0.1,1.3,0.1C34.8,39.8,35,39.8,35.1,39.8z"/>
				<path class="st1" d="M24.2,38.9c-0.1,0-0.1,0.1-0.1,0.1c-0.8,0.6-1.6,1-2.5,1.4c-0.7,0.2-1.4,0.4-2.2,0.5
					c-0.8,0.1-1.5,0.2-2.3,0.1c-0.4,0-0.6-0.1-1-0.1c-0.6-0.1-1.1-0.2-1.7-0.4c-0.4-0.1-0.8-0.2-1.1-0.4c-0.2-0.1-0.4-0.2-0.5-0.4
					c-0.5-0.4-0.6-0.9-0.5-1.5c0.1-0.5,0.3-0.9,0.6-1.3c0.5-0.7,1.1-1.3,1.8-1.7s1.5-0.7,2.2-0.9c0.6-0.2,1.4-0.3,2.1-0.4
					c0.6-0.1,1.2-0.1,1.8-0.1c0.5,0,0.9-0.1,1.4-0.1c0.9,0,1.8,0.1,2.6,0.4c0.3,0.1,0.6,0.2,0.9,0.4c0.1,0.1,0.2,0.1,0.4,0.2
					c0.4,0.4,0.6,0.8,0.4,1.4c-0.1,0.3-0.2,0.5-0.4,0.8C26,36.8,26,36.9,25.9,37s-0.1,0.1-0.2,0.1c-2.1,0-4.2,0-6.3,0
					c-0.5,0-0.9,0-1.4,0c-0.1,0-0.1,0-0.2,0.1c-0.2,0.3-0.5,0.6-0.6,0.9c-0.1,0.2-0.2,0.4-0.2,0.6c-0.1,0.4,0.1,0.7,0.5,0.9
					c0.2,0.1,0.5,0.2,0.7,0.2c0.4,0.1,0.7,0.1,1.1-0.1c0.5-0.1,0.9-0.4,1.1-0.9c0-0.1,0.1-0.1,0.1-0.1c1.1,0,2.2,0,3.2,0
					C23.9,38.8,24.1,38.9,24.2,38.9L24.2,38.9z M18.7,36.3c0.1,0,0.1,0,0.2,0c0.8,0,1.5,0,2.3,0c0.4,0,0.8,0,1.2,0
					c0.1,0,0.1,0,0.2-0.1c0.1-0.2,0.2-0.4,0.2-0.5c0.1-0.1,0.1-0.3,0.1-0.4c0-0.2-0.1-0.4-0.2-0.4c-0.1-0.1-0.2-0.1-0.2-0.1
					c-0.2-0.1-0.4-0.1-0.6-0.1c-0.6-0.1-1.2,0-1.7,0.3C19.7,35.2,19.2,35.7,18.7,36.3C18.8,36.2,18.8,36.3,18.7,36.3z"/>
			</g>
		</g>
	</g>
</g>
</svg>
